<svg id="Layer_1" data-name="Layer 1" xmlns="http://www.w3.org/2000/svg" xmlns:xlink="http://www.w3.org/1999/xlink" viewBox="0 0 224 223"><defs><style>.cls-1,.cls-4,.cls-5,.cls-6,.cls-7{fill:none;}.cls-2{fill:#65c8d0;}.cls-2,.cls-4,.cls-5,.cls-6,.cls-7,.cls-9{stroke:#fff;stroke-miterlimit:10;}.cls-2,.cls-5{stroke-width:7px;}.cls-3{clip-path:url(#clip-path);}.cls-4,.cls-5,.cls-6,.cls-7{stroke-linecap:round;}.cls-4{stroke-width:8px;}.cls-6{stroke-width:6px;}.cls-7{stroke-width:9px;}.cls-8,.cls-9{fill:#fff;}</style><clipPath id="clip-path" transform="translate(-10 -13.5)"><circle class="cls-1" cx="122" cy="125" r="108"/></clipPath></defs><title>Logo</title><circle class="cls-2" cx="112" cy="111.5" r="108"/><g class="cls-3"><path class="cls-4" d="M14,151c18,0,18,20,36,20s18-20,36-20,18,20,36,20,18-20,36-20,18,20,36,20,18-20,36-20" transform="translate(-10 -13.5)"/><path class="cls-5" d="M14,178c18,0,18,20,36,20s18-20,36-20,18,20,36,20,18-20,36-20,18,20,36,20,18-20,36-20" transform="translate(-10 -13.5)"/><path class="cls-6" d="M14,205c18,0,18,20,36,20s18-20,36-20,18,20,36,20,18-20,36-20,18,20,36,20,18-20,36-20" transform="translate(-10 -13.5)"/><line class="cls-7" x1="112" y1="102.5" x2="112" y2="156.5"/><line class="cls-5" x1="85" y1="102.5" x2="139" y2="102.5"/><line class="cls-6" x1="85" y1="102.5" x2="78.63" y2="77.04"/><path class="cls-8" d="M86,80c3.08,4.5,7.76,9.87,12,12.85L89,91.92,81.43,97C83.8,92.36,85.4,85.42,86,80Z" transform="translate(-10 -13.5)"/><line class="cls-6" x1="139" y1="102.5" x2="145.37" y2="77.04"/><path class="cls-8" d="M158,80c.6,5.42,2.2,12.36,4.57,17L155,91.92l-9.05.93C150.24,89.87,154.92,84.5,158,80Z" transform="translate(-10 -13.5)"/><line class="cls-7" x1="112" y1="102.5" x2="112" y2="59.49"/><path class="cls-8" d="M122,56.7c2.85,7.66,7.7,17.18,12.84,23.07L122,75.13l-12.84,4.64C114.3,73.88,119.16,64.36,122,56.7Z" transform="translate(-10 -13.5)"/><path class="cls-9" d="M41.73,85.3a6.34,6.34,0,0,1,1.61-2.06A6.71,6.71,0,0,1,45.53,82,6.53,6.53,0,0,1,48,81.66a6.6,6.6,0,0,1,5.81,4.5,6.66,6.66,0,0,1,.33,2.51,6.43,6.43,0,0,1-.69,2.52L51.7,94.72l4.71,2.36L55.24,99.4,44.65,94.09a6.31,6.31,0,0,1-2.06-1.6,6.78,6.78,0,0,1-1.23-2.19,6.55,6.55,0,0,1-.31-2.5A6.4,6.4,0,0,1,41.73,85.3Zm9.83,3.2A3.86,3.86,0,0,0,51.38,87a3.93,3.93,0,0,0-.76-1.33,3.86,3.86,0,0,0-1.25-1,3.92,3.92,0,0,0-1.51-.41,4,4,0,0,0-1.5.19,3.77,3.77,0,0,0-1.33.76A4.08,4.08,0,0,0,43.64,88a4,4,0,0,0,2.18,3.79l3.55,1.78L51.14,90A3.81,3.81,0,0,0,51.56,88.5Z" transform="translate(-10 -13.5)"/><path class="cls-9" d="M60,69.38a6.49,6.49,0,0,1-1.39-2.21,6.83,6.83,0,0,1-.4-2.48,6.58,6.58,0,0,1,.56-2.45,6.41,6.41,0,0,1,1.5-2.12,6.58,6.58,0,0,1,2.21-1.39A6.85,6.85,0,0,1,65,58.32a6.56,6.56,0,0,1,2.46.54A6.68,6.68,0,0,1,71,62.57a6.7,6.7,0,0,1-.14,5,6.21,6.21,0,0,1-1.51,2.12,6.38,6.38,0,0,1-2.2,1.38,6.52,6.52,0,0,1-2.5.4,6.69,6.69,0,0,1-2.47-.57A6.47,6.47,0,0,1,60,69.38Zm1.87-1.77a3.77,3.77,0,0,0,1.29.92,3.82,3.82,0,0,0,3,.09,3.84,3.84,0,0,0,1.34-.84,3.77,3.77,0,0,0,.92-1.29,3.94,3.94,0,0,0,.09-3,4,4,0,0,0-.84-1.34,3.9,3.9,0,0,0-2.76-1.24,3.88,3.88,0,0,0-1.5.25,4.07,4.07,0,0,0-2.26,2.13,3.91,3.91,0,0,0-.35,1.49,4.08,4.08,0,0,0,.25,1.5A3.92,3.92,0,0,0,61.89,67.61Z" transform="translate(-10 -13.5)"/><path class="cls-9" d="M91.24,40.69l1,2.39L85,46.2a1.3,1.3,0,0,0-.69,1.73,1.27,1.27,0,0,0,.72.72,1.29,1.29,0,0,0,1,0l4.84-2.07a3.75,3.75,0,0,1,1.53-.32,4.09,4.09,0,0,1,1.48.27,3.72,3.72,0,0,1,1.27.81A3.93,3.93,0,0,1,94,53.81l-7.26,3.11-1-2.4,7.27-3.1a1.31,1.31,0,0,0,.73-.73,1.38,1.38,0,0,0-.74-1.75,1.34,1.34,0,0,0-1,0L87,51a4,4,0,0,1-1.54.32A3.82,3.82,0,0,1,84,51.07a4,4,0,0,1-2.47-3.65A3.81,3.81,0,0,1,81.84,46a3.88,3.88,0,0,1,.81-1.26,3.83,3.83,0,0,1,1.3-.88Z" transform="translate(-10 -13.5)"/><path class="cls-9" d="M121,43.83l2,1.73-.85,1a6.61,6.61,0,0,1-2,1.56,6.37,6.37,0,0,1-2.48.64,6.43,6.43,0,0,1-2.54-.34,6.58,6.58,0,0,1-2.22-1.31A6.19,6.19,0,0,1,111.24,45a6.76,6.76,0,0,1-.29-4.92,6.29,6.29,0,0,1,1.3-2.24,6.5,6.5,0,0,1,2.09-1.58,6.63,6.63,0,0,1,2.44-.63,6.72,6.72,0,0,1,2.5.34,6.46,6.46,0,0,1,2.26,1.31l1,.86-6.84,7.7a3.92,3.92,0,0,0,4.48-1Zm-6.79-4.31a3.92,3.92,0,0,0-.49,4.57l1-1.13,1.43-1.61c.5-.57,1-1.11,1.46-1.62l1.08-1.21a3.85,3.85,0,0,0-2.37-.24A3.75,3.75,0,0,0,114.2,39.52Z" transform="translate(-10 -13.5)"/><path class="cls-9" d="M142.54,37.77l-2.88,12.81L137.15,50,140,37.2Z" transform="translate(-10 -13.5)"/><path class="cls-9" d="M173.57,45.14,167.8,55.46a6.3,6.3,0,0,1-1.69,2,6.58,6.58,0,0,1-2.25,1.15,6.45,6.45,0,0,1-2.52.22,6.56,6.56,0,0,1-2.47-.79,6.44,6.44,0,0,1-2-1.69,6.62,6.62,0,0,1-1.36-4.8,6.35,6.35,0,0,1,.8-2.47,6.55,6.55,0,0,1,6.47-3.3,6.33,6.33,0,0,1,2.47.79l3.45,1.93,2.56-4.6ZM160.14,55.73a3.78,3.78,0,0,0,1.49.48,3.83,3.83,0,0,0,1.51-.12,4,4,0,0,0,1.37-.7,4.09,4.09,0,0,0,1-1.2l1.93-3.45L164,48.81a3.94,3.94,0,0,0-1.5-.48,4.11,4.11,0,0,0-1.53.11,3.93,3.93,0,0,0-1.35.69,3.8,3.8,0,0,0-1,1.19,4,4,0,0,0-.49,1.5,3.88,3.88,0,0,0,.82,2.89A3.82,3.82,0,0,0,160.14,55.73Z" transform="translate(-10 -13.5)"/><path class="cls-9" d="M180.35,65.58a6.48,6.48,0,0,1,2.28-1.28,6.6,6.6,0,0,1,2.49-.29,6.4,6.4,0,0,1,2.43.67,6.27,6.27,0,0,1,2,1.59,6.42,6.42,0,0,1,1.29,2.28,7.07,7.07,0,0,1,.3,2.5,6.56,6.56,0,0,1-.65,2.43,6.63,6.63,0,0,1-3.87,3.33,6.77,6.77,0,0,1-2.52.3,6.92,6.92,0,0,1-2.44-.66,6.54,6.54,0,0,1-3.62-6.38,6.85,6.85,0,0,1,.68-2.44A6.41,6.41,0,0,1,180.35,65.58Zm1.68,2a3.91,3.91,0,0,0-1,1.25,3.85,3.85,0,0,0-.41,1.47,3.77,3.77,0,0,0,.19,1.52,3.83,3.83,0,0,0,.78,1.37,3.9,3.9,0,0,0,1.24,1,4,4,0,0,0,1.47.41,4,4,0,0,0,2.9-1,3.91,3.91,0,0,0,1-1.23,4,4,0,0,0,.4-1.47,3.9,3.9,0,0,0-.19-1.51,3.79,3.79,0,0,0-.78-1.38,3.87,3.87,0,0,0-1.24-1,3.78,3.78,0,0,0-1.48-.41,4,4,0,0,0-1.5.17A4.06,4.06,0,0,0,182,67.53Z" transform="translate(-10 -13.5)"/><path class="cls-9" d="M199.88,88.91a6.53,6.53,0,0,1,2.44.59,6.6,6.6,0,0,1,3.84,6.24,6.93,6.93,0,0,1-.59,2.46,6.41,6.41,0,0,1-3.66,3.43l-6.17,2.3-.91-2.44,6.17-2.3a3.89,3.89,0,0,0,1.33-.83,4.08,4.08,0,0,0,.88-1.23,4,4,0,0,0,.09-3,3.92,3.92,0,0,0-.82-1.33,3.85,3.85,0,0,0-1.24-.88,4.07,4.07,0,0,0-1.47-.36,4,4,0,0,0-1.55.25l-6.17,2.31-.91-2.44,6.17-2.31A6.27,6.27,0,0,1,199.88,88.91Z" transform="translate(-10 -13.5)"/></g></svg>