<svg id="Layer_1" data-name="Layer 1" xmlns="http://www.w3.org/2000/svg" viewBox="0 0 82.51 32"><defs><style>.cls-1,.cls-3{fill:#231f20;}.cls-2{fill:none;}.cls-3{font-size:24px;font-family:Candara-Light, Candara;font-weight:300;}</style></defs><path class="cls-1" d="M48.93,13.88a1.41,1.41,0,0,1,.18.17l5,5A6.3,6.3,0,1,1,45.2,28l-5-5a6.28,6.28,0,0,1,3-10.56,3.23,3.23,0,0,1,.56.9,5.29,5.29,0,0,0-2.82,9l5,5a5.3,5.3,0,0,0,7.5-7.5l-4.49-4.49A9.08,9.08,0,0,0,48.93,13.88ZM36.4,17.74l-4.49-4.49a5.3,5.3,0,1,1,7.5-7.5l5,5a5.3,5.3,0,0,1-2.82,9,3.23,3.23,0,0,0,.56.9A6.29,6.29,0,0,0,46.79,13a6.21,6.21,0,0,0-1.68-3l-5-5A6.3,6.3,0,0,0,31.2,14l5,5,.19.17A9.2,9.2,0,0,1,36.4,17.74Z" transform="translate(-2.76)"/><path class="cls-2" d="M26.16,0h32V32h-32Z" transform="translate(-2.76)"/><text class="cls-3" transform="translate(0 25.53)">Re</text><text class="cls-3" transform="translate(55.4 25.77)">eR</text></svg>