<?xml version="1.0" encoding="UTF-8" standalone="no"?>
<!-- Generator: Adobe Illustrator 16.0.0, SVG Export Plug-In . SVG Version: 6.00 Build 0)  -->

<svg
   version="1.1"
   id="Capa_1"
   x="0px"
   y="0px"
   width="965.53088"
   height="904.34753"
   viewBox="0 0 965.53089 904.34753"
   xml:space="preserve"
   sodipodi:docname="edit-circle-bridge-broken.svg"
   inkscape:version="1.1.2 (b8e25be833, 2022-02-05)"
   xmlns:inkscape="http://www.inkscape.org/namespaces/inkscape"
   xmlns:sodipodi="http://sodipodi.sourceforge.net/DTD/sodipodi-0.dtd"
   xmlns="http://www.w3.org/2000/svg"
   xmlns:svg="http://www.w3.org/2000/svg"><defs
   id="defs85" /><sodipodi:namedview
   id="namedview83"
   pagecolor="#ffffff"
   bordercolor="#666666"
   borderopacity="1.0"
   inkscape:pageshadow="2"
   inkscape:pageopacity="0.0"
   inkscape:pagecheckerboard="0"
   showgrid="false"
   inkscape:zoom="0.60014945"
   inkscape:cx="322.41969"
   inkscape:cy="529.86802"
   inkscape:window-width="1920"
   inkscape:window-height="1017"
   inkscape:window-x="-1928"
   inkscape:window-y="-8"
   inkscape:window-maximized="1"
   inkscape:current-layer="layer2"
   fit-margin-top="0"
   fit-margin-left="0"
   fit-margin-right="0"
   fit-margin-bottom="0" />
<g
   inkscape:groupmode="layer"
   id="layer2"
   inkscape:label="Layer 2"
   transform="translate(-19.486348,128.91483)"><ellipse
     style="fill:#ffffff;stroke-width:0.6;stroke-linecap:square;stroke-linejoin:bevel"
     id="path870"
     cx="446.81793"
     cy="62.704094"
     rx="1.6662517"
     ry="99.975098" /><ellipse
     style="fill:#ffffff;stroke-width:0.798152;stroke-linecap:square;stroke-linejoin:bevel"
     id="path898"
     cx="505.13675"
     cy="323.25894"
     rx="479.88046"
     ry="452.17377" /></g><g
   inkscape:groupmode="layer"
   id="layer1"
   inkscape:label="Layer 1"
   transform="translate(-19.486348,128.91483)"><g
     id="g50"
     transform="translate(21.392647,-134.04529)"><path
       id="path3817"
       d="m 204.46289,364.82617 -75.74023,210.42969 c 0.59748,-0.94795 1.10772,-1.96842 1.50195,-3.06445 l 11.43945,-31.80469 274.86719,98.86523 c 5.78163,-15.95047 11.55046,-31.87372 18.27539,-50.32812 9.21646,-25.29155 19.10991,-52.33555 29.10742,-79.49024 9.99751,-27.1547 20.0994,-54.42014 29.73242,-80.15429 9.63302,-25.73415 18.79695,-49.93688 26.91993,-70.9668 0.25223,-0.65301 0.45291,-1.15198 0.70312,-1.79883 C 451.31966,341.77282 381.52771,342.7551 319.5,360.03516 278.52161,371.43974 242.92484,389.452 213.83203,413.3125 c -17.48114,14.32802 -32.13013,30.5297 -43.96875,48.375 l 33.94727,-94.38086 c 0.29501,-0.82018 0.49894,-1.64931 0.65234,-2.48047 z M 424,401.74023 c 13.26897,-0.0345 26.71874,0.64973 40.26367,1.96485 l -56.92969,158.27539 -4.02539,-159.58203 c 4.97337,-0.30974 9.98119,-0.50751 15.01563,-0.59961 1.88792,-0.0345 3.78022,-0.0537 5.67578,-0.0586 z m -99.43945,14.8418 -33.88086,94.19531 -2.01367,-79.79101 c 11.13896,-5.55907 23.14474,-10.27592 35.89453,-14.4043 z m 47.88476,4.25977 3.44336,137.26758 -46.76562,-16.82227 z m -114.61523,28.80664 1.66015,66.59375 -47.42578,-17.0586 c 11.16874,-18.93752 26.61684,-35.59335 45.76563,-49.53515 z"
       transform="translate(4.3117767,-10.912165)"
       style="fill:#666666" /><path
       id="path1104"
       d="m 152.73828,297.19531 c -0.51732,-0.0221 -1.03272,-0.019 -1.54492,0.01 -6.14636,0.34496 -11.80717,4.28582 -14.01563,10.42578 l -6.02539,16.75 -11.29101,-4.0625 c -8.18654,-2.94461 -17.27221,1.33298 -20.216799,9.51953 l -73.68164,204.85156 c -2.944572,8.18648 1.334959,17.27216 9.521484,20.2168 l 74.523435,26.80469 c 7.09049,2.55037 14.84957,-0.32254 18.71485,-6.45508 L 204.46289,364.8264 c 1.37769,-7.46485 -2.80361,-15.08675 -10.16992,-17.73633 L 183,343.0293 l 6.02539,-16.74805 c 2.94464,-8.1866 -1.33493,-17.27219 -9.52148,-20.2168 l -22.11133,-7.95312 c -1.53497,-0.55211 -3.10234,-0.84984 -4.6543,-0.91602 z"
       transform="translate(4.3117767,-10.912165)"
       style="fill:#a05a2c" /><path
       id="path4997"
       d="M 811.43945,555.85156 784.46094,476.30859 C 773.0192,458.47813 758.74639,442.12704 741.60742,427.48047 712.9229,402.99685 677.69075,384.43158 636.92773,372.28125 600.64181,361.48121 561.56569,356.27564 521.26953,356.51367 l 50.27344,173.54492 0.54101,1.59375 -0.12109,-0.14453 27.8457,96.125 z m -226.50781,-131.08984 92.57227,110.41797 -49.4336,16.76562 z m 43.6875,3.34375 c 52.07796,17.18242 91.29003,46.86199 112.99609,85.32812 l -32.38671,10.98438 z"
       transform="translate(4.3117767,-10.912165)"
       style="fill:#666666" /><path
       id="path1577"
       d="m 804.7168,312.5293 c -1.5524,0.0378 -3.12513,0.30803 -4.66992,0.83203 l -22.16016,7.51562 c -8.23806,2.79432 -12.68321,11.80005 -9.88867,20.03907 l 5.71679,16.85546 -11.36328,3.85352 c -8.239,2.79456 -12.68129,11.8001 -9.88672,20.03906 l 32.21875,94.98633 c -0.0732,-0.11451 -0.14925,-0.22741 -0.22265,-0.3418 l 26.97851,79.54297 10.85743,32.00782 c 2.79461,8.23892 11.80005,12.68324 20.03906,9.88867 l 75.00195,-25.43946 c 8.23802,-2.79426 12.68326,-11.80008 9.88867,-20.03906 L 857.29883,346.10547 c -2.92227,-8.30121 -11.80006,-12.68183 -20.13281,-9.85547 l -11.36524,3.85547 -5.7168,-16.85547 c -2.09594,-6.17922 -7.68515,-10.22444 -13.82421,-10.68164 -0.51159,-0.0381 -1.02551,-0.0517 -1.54297,-0.0391 z"
       transform="translate(4.3117767,-10.912165)"
       style="fill:#a05a2c" /><circle
       id="path4642"
       style="fill:#ff0000;stroke:#ffffff"
       cx="519.04736"
       cy="344.08096"
       r="0.017894292" /><circle
       id="path4644"
       style="fill:#ff0000;stroke:#ffffff"
       cx="519.04736"
       cy="344.08096"
       r="0.017894292" /></g><path
     style="fill:none;stroke:#000000;stroke-width:1px;stroke-linecap:butt;stroke-linejoin:miter;stroke-opacity:1"
     d="M 169.86387,461.688 Z"
     id="path1029" /></g>
<g
   id="g52"
   transform="translate(-19.486348,128.91483)">
</g>
<g
   id="g54"
   transform="translate(-19.486348,128.91483)">
</g>
<g
   id="g56"
   transform="translate(-19.486348,128.91483)">
</g>
<g
   id="g58"
   transform="translate(-19.486348,128.91483)">
</g>
<g
   id="g60"
   transform="translate(-19.486348,128.91483)">
</g>
<g
   id="g62"
   transform="translate(-19.486348,128.91483)">
</g>
<g
   id="g64"
   transform="translate(-19.486348,128.91483)">
</g>
<g
   id="g66"
   transform="translate(-19.486348,128.91483)">
</g>
<g
   id="g68"
   transform="translate(-19.486348,128.91483)">
</g>
<g
   id="g70"
   transform="translate(-19.486348,128.91483)">
</g>
<g
   id="g72"
   transform="translate(-19.486348,128.91483)">
</g>
<g
   id="g74"
   transform="translate(-19.486348,128.91483)">
</g>
<g
   id="g76"
   transform="translate(-19.486348,128.91483)">
</g>
<g
   id="g78"
   transform="translate(-19.486348,128.91483)">
</g>
<g
   id="g80"
   transform="translate(-19.486348,128.91483)">
</g>
</svg>
